<svg xmlns="http://www.w3.org/2000/svg" viewBox="0 0 138.2 44.4"><defs><style>.cls-1{fill:#1d1d1b;}</style></defs><title>logo</title><g id="Layer_2" data-name="Layer 2"><g id="Layer_1-2" data-name="Layer 1"><path class="cls-1" d="M44.3,20.5A22.2,22.2,0,0,0,23.8.1,21.4,21.4,0,0,0,7.1,6,22.1,22.1,0,0,0,22.2,44.4a1.5,1.5,0,0,0,1.5-1.5,1.5,1.5,0,0,0-1.5-1.5,19.2,19.2,0,1,1,8.5-2V37.6a2.5,2.5,0,0,1,.5-1.5,10.5,10.5,0,0,0,2.5-6.7V11.3a3.8,3.8,0,0,0-3.8-3.8,3.7,3.7,0,0,0-3.7,3.8v2.3H24.8a4.2,4.2,0,0,0-1.5.4,3.8,3.8,0,0,0-1.6-.4H20.6v-4a3.8,3.8,0,1,0-7.5,0V21.3l-2.4-.6a3.9,3.9,0,0,0-4.6,3,4,4,0,0,0,2.7,4.6l2.3.7c.2,0,.3.2.3.4a10,10,0,0,0,1.8,5.8,1.5,1.5,0,0,0,1.3.7l.8-.3a1.4,1.4,0,0,0,.4-2,8,8,0,0,1-1.3-4.2A3.5,3.5,0,0,0,12,26.1l-2.3-.7a.9.9,0,0,1-.6-1.1.9.9,0,0,1,1-.7,18.5,18.5,0,0,1,9.5,5.1l1,1a1.4,1.4,0,0,0,2.1,0,1.6,1.6,0,0,0,0-2.2l-1-.9a20.7,20.7,0,0,0-5.6-4.1V9.6a.7.7,0,0,1,.8-.8.7.7,0,0,1,.7.8v11a3.6,3.6,0,0,0,3.6,3.6h.1a3.6,3.6,0,0,0,2-.6,3.4,3.4,0,0,0,2,.6h.5a3.4,3.4,0,0,0,3.4-3.4V11.3a.8.8,0,0,1,.7-.8.9.9,0,0,1,.8.8V29.4a7.4,7.4,0,0,1-1.8,4.8,5.6,5.6,0,0,0-1.2,3.4v2A2.7,2.7,0,0,0,29.1,42a2.9,2.9,0,0,0,2.7.2A22.1,22.1,0,0,0,44.3,20.5Zm-23,.7h-.1a.6.6,0,0,1-.6-.6V16.7h1.3v3.9a.8.8,0,0,1-.2.5Zm4.9-.4a.4.4,0,0,1-.4.4h-.5a.4.4,0,0,1-.4-.4v-.2h0V16.7h1.3v4.2Z"/><path d="M71.3,30.5H52.2c-.9,0-1.4-.5-1.4-1.5s.4-1.3,1.4-1.3H71.3c1.2,0,1.4.6,1.4,1.3S72.5,30.5,71.3,30.5Zm-2.8-6.8H56.4c-1.6,0-2.5-.6-2.5-2.3V14.7h-.3a1.2,1.2,0,0,1-1.3-1.3A1.2,1.2,0,0,1,53.6,12H68.3c1.2,0,1.4.7,1.4,1.4s-.1,1.4-1.3,1.4H57.1V21H68.5c.8,0,1.5.4,1.5,1.3S69.4,23.7,68.5,23.7Z"/><path d="M86.8,21.9a19.5,19.5,0,0,1-8.3,1.6H77.4a3,3,0,0,1-3.3-2.9V17.9h-.3a1.2,1.2,0,0,1-1.3-1.2,1.2,1.2,0,0,1,1.3-1.4H82V12.9H74.7a1.3,1.3,0,0,1-1.4-1.3,1.4,1.4,0,0,1,1.4-1.5h8.7a1.6,1.6,0,0,1,1.8,1.8v4.3c0,1.2-.6,1.8-2.2,1.8H77.2v2.3c0,.4.3.5.6.5h1.3a12.7,12.7,0,0,0,6.6-1.5,1.4,1.4,0,0,1,1.8.5A1.5,1.5,0,0,1,86.8,21.9Zm6,10a1.4,1.4,0,0,1-1.5,1.5,1.4,1.4,0,0,1-1.6-1.5V27.2h-12a1.4,1.4,0,0,1,0-2.8H90.9c1.6,0,1.9.8,1.9,2Zm0-10a1.5,1.5,0,0,1-1.6,1.6,1.4,1.4,0,0,1-1.5-1.6V17.6H87c-.9,0-1.3-.5-1.3-1.4s.4-1.4,1.3-1.4h2.7V10.7h-.9a1.3,1.3,0,0,1-1.4-1.3c0-1,.7-1.3,1.5-1.3h2.7a1.2,1.2,0,0,1,1.2,1.2Z"/><path d="M115.8,30.5H96.7A1.3,1.3,0,0,1,95.2,29c0-.9.5-1.3,1.5-1.3h19.1c1.2,0,1.4.6,1.4,1.3S117,30.5,115.8,30.5ZM113,23.7H100.9c-1.6,0-2.5-.6-2.5-2.3V14.7h-.3a1.3,1.3,0,0,1-1.4-1.3A1.3,1.3,0,0,1,98.1,12h14.7c1.2,0,1.4.7,1.4,1.4s-.2,1.4-1.4,1.4H101.5V21h11.4c.9,0,1.5.4,1.5,1.3S113.8,23.7,113,23.7Z"/><path d="M132.5,26.1c-2.8,1.4-5.8,1.5-8.7,1.5h-1.2a3,3,0,0,1-3.3-2.9V20.2H119c-.8,0-1.3-.3-1.3-1.3s.5-1.4,1.3-1.4h7.9V13.9h-7a1.2,1.2,0,0,1-1.4-1.4c0-1,.6-1.3,1.4-1.3h8.3a1.7,1.7,0,0,1,1.9,1.9v5.3c0,1.2-.6,1.9-2.3,1.9h-5.3v4c0,.4.2.5.6.5h1.4a15,15,0,0,0,6.9-1.4,1.4,1.4,0,0,1,1.8.6A1.4,1.4,0,0,1,132.5,26.1Zm5.7,6.7a1.5,1.5,0,0,1-1.6,1.6,1.4,1.4,0,0,1-1.6-1.5V20.3h-2.9a1.4,1.4,0,1,1,0-2.8H135V11.7h-.8a1.2,1.2,0,0,1-1.3-1.3c0-1,.6-1.3,1.4-1.3H137a1.2,1.2,0,0,1,1.2,1.2Z"/></g></g></svg>