<svg xmlns="http://www.w3.org/2000/svg" viewBox="0 0 70.2 76.3"><defs><style>.cls-1{fill:#fff;}</style></defs><title>menu</title><g id="Layer_2" data-name="Layer 2"><g id="Layer_3" data-name="Layer 3"><path class="cls-1" d="M70.2,32h0c-8.9-2.1-17.3,1.6-23.7,6,5.9-6.8,11.7-16.3,10.2-27.1-8.3,3.4-13.5,10.6-16.6,17.8,1.4-17.2-5-28.7-5-28.7s-6.5,11.6-5,28.8C27,21.6,21.8,14.3,13.5,10.9,12,21.7,17.7,31.2,23.7,38,17.3,33.6,8.9,29.9,0,32H0C5.5,42.8,18.3,46.4,26.9,47.7c-5.7.1-13,1.5-17.3,7.1h0c8.2,3.6,17.2-.9,22-4h0c-2.3,2.5-6.6,10-5.9,14.4,6-2.7,9.1-9.7,9.3-12,.3,2.5,3.6,9.4,9.4,12,.8-4.4-3.6-11.9-5.9-14.4h0c4.8,3.1,13.9,7.6,22,4h0c-4.3-5.6-11.5-7-17.2-7.1,8.5-1.3,21.4-4.9,26.9-15.7Z"/><line class="cls-1" x1="35" y1="53.2" x2="35" y2="76.3"/></g></g></svg>