<svg xmlns="http://www.w3.org/2000/svg" viewBox="0 0 72 72"><defs><style>.cls-1{fill:none;stroke:#fff;stroke-miterlimit:10;stroke-width:2px;}</style></defs><title>setup</title><g id="Layer_2" data-name="Layer 2"><g id="Layer_2-2" data-name="Layer 2"><path class="cls-1" d="M69.5,25.9a2,2,0,0,0-2.1-1.7l-6.5.7A2,2,0,0,1,59,23.8a14,14,0,0,0-1-1.6,2,2,0,0,1,.1-2.2l3.8-5.4a1.9,1.9,0,0,0-.4-2.6L55.1,6.5a1.9,1.9,0,0,0-2.7.1l-4.5,4.7a2,2,0,0,1-2.2.4L44,11.1a2.2,2.2,0,0,1-1.4-1.8l-.5-6.5A1.9,1.9,0,0,0,40.2,1H31.7a1.9,1.9,0,0,0-1.9,1.8l-.5,6.5a2.2,2.2,0,0,1-1.4,1.8l-1.8.6a1.8,1.8,0,0,1-2.1-.4L19.5,6.7a2,2,0,0,0-2.7-.2L10.4,12a2.2,2.2,0,0,0-.4,2.7L13.8,20a2.2,2.2,0,0,1,0,2.2l-1,1.7A2,2,0,0,1,10.9,25l-6.3-.6A2,2,0,0,0,2.5,26L1,34.4a2.2,2.2,0,0,0,1.5,2.3l6.1,1.6a1.9,1.9,0,0,1,1.5,1.6l.3,2A2,2,0,0,1,9.6,44L4.4,47.6a2.1,2.1,0,0,0-.6,2.6L8,57.7a2.1,2.1,0,0,0,2.6.8l5.7-2.8a1.8,1.8,0,0,1,2.2.3L20,57.3a2,2,0,0,1,.7,2.1L19,65.6A2,2,0,0,0,20.2,68l8,2.9a1.9,1.9,0,0,0,2.4-1.1l2.7-5.9a1.8,1.8,0,0,1,1.8-1.2H37a2,2,0,0,1,1.9,1.2l2.7,5.9a1.8,1.8,0,0,0,2.4,1l7.9-2.9a1.9,1.9,0,0,0,1.2-2.4l-1.7-6.4a1.9,1.9,0,0,1,.7-2l1.4-1.3a2,2,0,0,1,2.2-.3l5.8,2.8a1.9,1.9,0,0,0,2.5-.8l4.3-7.4a2,2,0,0,0-.6-2.6l-5.4-3.8a1.8,1.8,0,0,1-.8-2l.3-1.8a2.1,2.1,0,0,1,1.4-1.7l6.3-1.7A2,2,0,0,0,71,34.3ZM36,49A13,13,0,1,1,48.8,36,12.9,12.9,0,0,1,36,49Z"/></g></g></svg>