<svg xmlns="http://www.w3.org/2000/svg" viewBox="0 0 44.4 44.4"><defs><style>.cls-1{fill:#1d1d1b;}</style></defs><title>첫화면</title><g id="Layer_2" data-name="Layer 2"><g id="Layer_1-2" data-name="Layer 1"><path class="cls-1" d="M44.3,20.5A22.2,22.2,0,0,0,23.8.1,21.4,21.4,0,0,0,7.1,6,22.1,22.1,0,0,0,22.2,44.4a1.5,1.5,0,0,0,1.5-1.5,1.5,1.5,0,0,0-1.5-1.5,19.2,19.2,0,1,1,8.5-2V37.6a2.5,2.5,0,0,1,.5-1.5,10.5,10.5,0,0,0,2.5-6.7V11.3a3.8,3.8,0,0,0-3.8-3.8,3.7,3.7,0,0,0-3.7,3.8v2.3H24.8a4.2,4.2,0,0,0-1.5.4,3.8,3.8,0,0,0-1.6-.4H20.6v-4a3.8,3.8,0,1,0-7.5,0V21.3l-2.4-.6a3.9,3.9,0,0,0-4.6,3,4,4,0,0,0,2.7,4.6l2.3.7c.2,0,.3.2.3.4a10,10,0,0,0,1.8,5.8,1.5,1.5,0,0,0,1.3.7l.8-.3a1.4,1.4,0,0,0,.4-2,8,8,0,0,1-1.3-4.2A3.5,3.5,0,0,0,12,26.1l-2.3-.7a.9.9,0,0,1-.6-1.1.9.9,0,0,1,1-.7,18.5,18.5,0,0,1,9.5,5.1l1,1a1.4,1.4,0,0,0,2.1,0,1.6,1.6,0,0,0,0-2.2l-1-.9a20.7,20.7,0,0,0-5.6-4.1V9.6a.7.7,0,0,1,.8-.8.7.7,0,0,1,.7.8v11a3.6,3.6,0,0,0,3.6,3.6h.1a3.6,3.6,0,0,0,2-.6,3.4,3.4,0,0,0,2,.6h.5a3.4,3.4,0,0,0,3.4-3.4V11.3a.8.8,0,0,1,.7-.8.9.9,0,0,1,.8.8V29.4a7.4,7.4,0,0,1-1.8,4.8,5.6,5.6,0,0,0-1.2,3.4v2A2.7,2.7,0,0,0,29.1,42a2.9,2.9,0,0,0,2.7.2A22.1,22.1,0,0,0,44.3,20.5Zm-23,.7h-.1a.6.6,0,0,1-.6-.6V16.7h1.3v3.9a.8.8,0,0,1-.2.5Zm4.9-.4a.4.4,0,0,1-.4.4h-.5a.4.4,0,0,1-.4-.4v-.2h0V16.7h1.3v4.2Z"/></g></g></svg>